<?xml version="1.0" standalone="no"?>
<!DOCTYPE svg PUBLIC "-//W3C//DTD SVG 20010904//EN"
 "http://www.w3.org/TR/2001/REC-SVG-20010904/DTD/svg10.dtd">
<svg version="1.0" xmlns="http://www.w3.org/2000/svg"
 width="500.000000pt" height="500.000000pt" viewBox="0 0 500.000000 500.000000"
 preserveAspectRatio="xMidYMid meet">

<g transform="translate(0.000000,500.000000) scale(0.100000,-0.100000)"
fill="#000000" stroke="none">
<path d="M2320 4994 c-19 -2 -78 -9 -130 -15 -439 -49 -911 -251 -1266 -540
-498 -405 -816 -978 -905 -1629 -17 -123 -17 -497 -1 -615 68 -476 247 -900
529 -1255 400 -503 985 -831 1643 -921 125 -18 497 -18 620 -1 741 104 1364
490 1769 1098 216 324 347 674 402 1074 17 122 18 497 1 615 -57 410 -184 750
-402 1078 -394 594 -1019 987 -1734 1093 -97 14 -454 27 -526 18z m470 -195
c417 -55 824 -227 1154 -487 91 -71 297 -277 368 -368 359 -455 542 -1042 499
-1601 -44 -577 -276 -1081 -680 -1483 -367 -365 -787 -574 -1316 -656 -135
-20 -458 -23 -595 -5 -1068 143 -1880 954 -2021 2021 -16 122 -16 438 0 560
91 682 457 1273 1026 1654 137 92 372 206 535 260 200 67 328 92 605 120 61 6
340 -4 425 -15z"/>
<path d="M2275 4429 c-1005 -122 -1748 -987 -1712 -1994 11 -293 67 -522 192
-780 262 -540 757 -928 1345 -1053 581 -124 1200 32 1657 419 431 366 683 911
683 1479 0 948 -680 1750 -1625 1916 -101 18 -434 26 -540 13z m343 -570 c213
-23 409 -81 594 -176 412 -210 665 -555 735 -998 22 -144 22 -459 -2 -590 -58
-329 -219 -586 -500 -795 -167 -126 -359 -209 -560 -245 -109 -19 -329 -22
-440 -5 -108 16 -249 62 -310 101 -229 146 -426 252 -535 288 -82 27 -189 28
-247 2 -61 -28 -116 -91 -154 -176 -30 -67 -37 -75 -61 -75 -16 0 -28 2 -28 4
0 18 79 225 107 281 107 215 277 362 480 417 101 27 297 29 427 4 112 -22 278
-77 369 -123 l70 -35 38 38 c98 95 88 182 -29 267 -26 19 -137 80 -247 137
-230 118 -271 145 -314 199 -44 55 -61 102 -61 164 0 104 48 207 220 469 l119
183 -52 3 c-187 12 -663 -86 -847 -175 -91 -44 -174 -124 -215 -208 -26 -53
-29 -71 -30 -150 0 -76 4 -97 24 -135 38 -72 69 -107 132 -149 112 -75 270
-89 449 -41 41 11 76 20 78 20 1 0 2 -13 2 -29 0 -24 -6 -31 -42 -44 -88 -32
-136 -41 -233 -40 -80 0 -112 5 -160 23 -136 52 -224 135 -294 276 -115 232
-72 572 104 819 177 248 569 447 975 494 109 12 326 13 438 0z"/>
<path d="M2325 3148 c-36 -79 -39 -107 -16 -145 28 -45 90 -77 259 -137 193
-69 298 -124 371 -196 82 -80 105 -141 105 -280 1 -101 0 -108 -37 -184 -21
-44 -54 -102 -74 -130 -36 -50 -176 -216 -260 -308 -24 -26 -43 -51 -43 -55 0
-5 39 -32 88 -60 371 -220 665 -239 884 -56 143 119 223 286 235 488 10 175
-36 332 -141 479 -67 93 -228 242 -356 328 -275 184 -578 290 -872 305 l-118
6 -25 -55z"/>
</g>
</svg>
