<?xml version="1.0" encoding="utf-8"?>
<!-- Generator: Adobe Illustrator 22.1.0, SVG Export Plug-In . SVG Version: 6.00 Build 0)  -->
<svg version="1.1" id="图层_1" xmlns="http://www.w3.org/2000/svg" xmlns:xlink="http://www.w3.org/1999/xlink" x="0px" y="0px"
	 viewBox="0 0 272.1 272.3" style="enable-background:new 0 0 272.1 272.3;" xml:space="preserve">
<g transform="translate(0.000000,500.000000) scale(0.100000,-0.100000)">
	<path d="M1262.3,4998.4c-10.4-1.1-42.6-4.9-70.9-8.2c-239.5-26.7-497-136.9-690.7-294.6C229.1,4474.7,55.6,4162.1,7,3806.9
		c-9.3-67.1-9.3-271.1-0.5-335.5c37.1-259.7,134.7-491,288.6-684.7c218.2-274.4,537.4-453.3,896.3-502.4
		c68.2-9.8,271.1-9.8,338.2-0.5c404.2,56.7,744.1,267.3,965.1,599c117.8,176.8,189.3,367.7,219.3,585.9
		c9.3,66.6,9.8,271.1,0.5,335.5c-31.1,223.7-100.4,409.2-219.3,588.1c-214.9,324.1-555.9,538.5-946,596.3
		C1496.4,4996.2,1301.6,5003.3,1262.3,4998.4z M1518.7,4892c227.5-30,449.5-123.8,629.6-265.7c49.6-38.7,162-151.1,200.8-200.8
		c195.9-248.2,295.7-568.5,272.2-873.4c-24-314.8-150.6-589.7-371-809c-200.2-199.1-429.3-313.1-717.9-357.9
		c-73.6-10.9-249.9-12.5-324.6-2.7c-582.6,78-1025.6,520.5-1102.5,1102.5c-8.7,66.6-8.7,238.9,0,305.5
		c49.6,372.1,249.3,694.5,559.7,902.3c74.7,50.2,202.9,112.4,291.9,141.8c109.1,36.6,178.9,50.2,330.1,65.5
		C1320.2,4903.5,1472.4,4898,1518.7,4892z"/>
	<path d="M1237.8,4690.1c-548.3-66.6-953.6-538.5-934-1087.8c6-159.8,36.6-284.8,104.7-425.5c142.9-294.6,413-506.3,733.8-574.5
		c317-67.6,654.7,17.5,904,228.6c235.1,199.7,372.6,497,372.6,806.9c0,517.2-371,954.7-886.5,1045.3
		C1477.3,4692.9,1295.6,4697.2,1237.8,4690.1z M1424.9,4379.2c116.2-12.5,223.1-44.2,324.1-96c224.8-114.6,362.8-302.8,401-544.5
		c12-78.6,12-250.4-1.1-321.9c-31.6-179.5-119.5-319.7-272.8-433.7c-91.1-68.7-195.9-114-305.5-133.7c-59.5-10.4-179.5-12-240-2.7
		c-58.9,8.7-135.8,33.8-169.1,55.1c-124.9,79.6-232.4,137.5-291.9,157.1c-44.7,14.7-103.1,15.3-134.7,1.1
		c-33.3-15.3-63.3-49.6-84-96c-16.4-36.6-20.2-40.9-33.3-40.9c-8.7,0-15.3,1.1-15.3,2.2c0,9.8,43.1,122.7,58.4,153.3
		c58.4,117.3,151.1,197.5,261.9,227.5c55.1,14.7,162,15.8,232.9,2.2c61.1-12,151.7-42,201.3-67.1l38.2-19.1l20.7,20.7
		c53.5,51.8,48,99.3-15.8,145.7c-14.2,10.4-74.7,43.6-134.7,74.7c-125.5,64.4-147.8,79.1-171.3,108.6c-24,30-33.3,55.6-33.3,89.5
		c0,56.7,26.2,112.9,120,255.9l64.9,99.8l-28.4,1.6c-102,6.5-361.7-46.9-462.1-95.5c-49.6-24-94.9-67.6-117.3-113.5
		c-14.2-28.9-15.8-38.7-16.4-81.8c0-41.5,2.2-52.9,13.1-73.6c20.7-39.3,37.6-58.4,72-81.3c61.1-40.9,147.3-48.6,245-22.4
		c22.4,6,41.5,10.9,42.6,10.9c0.5,0,1.1-7.1,1.1-15.8c0-13.1-3.3-16.9-22.9-24c-48-17.5-74.2-22.4-127.1-21.8
		c-43.6,0-61.1,2.7-87.3,12.5c-74.2,28.4-122.2,73.6-160.4,150.6c-62.7,126.6-39.3,312.1,56.7,446.8
		c96.6,135.3,310.4,243.9,531.9,269.5C1245.4,4385.7,1363.8,4386.3,1424.9,4379.2z"/>
	<path d="M1265.1,3991.3c-19.6-43.1-21.3-58.4-8.7-79.1c15.3-24.5,49.1-42,141.3-74.7c105.3-37.6,162.6-67.6,202.4-106.9
		c44.7-43.6,57.3-76.9,57.3-152.8c0.5-55.1,0-58.9-20.2-100.4c-11.5-24-29.5-55.6-40.4-70.9c-19.6-27.3-96-117.8-141.8-168
		c-13.1-14.2-23.5-27.8-23.5-30c0-2.7,21.3-17.5,48-32.7c202.4-120,362.8-130.4,482.3-30.6c78,64.9,121.7,156,128.2,266.2
		c5.5,95.5-19.6,181.1-76.9,261.3c-36.6,50.7-124.4,132-194.2,178.9c-150,100.4-315.3,158.2-475.7,166.4l-64.4,3.3L1265.1,3991.3z"
		/>
</g>
</svg>
